PathFileType	4	(X/Y/Z)	D:\Share\Shared_Data\Ergonomics\Sit To Stand Pertubation\S0\Free STS.trc
DataRate	CameraRate	NumFrames	NumMarkers	Units	OrigDataRate	OrigDataStartFrame	OrigNumFrames	
100	100	8	18	m	100	2744	211
Frame#	Time	R_Toe			R_ASIS			R_Pelvis			V_Sacral			L_Pelvis			L_ASIS			Clavical			R_Acromium			L_Acromium			Sternum			Torso			R_Thigh_Med			R_Thigh_Lat			R_Thigh			R_Shank_Med			R_Shank_Lat			R_Shank			R_Heel			
		X1	Y1	Z1	X2	Y2	Z2	X3	Y3	Z3	X4	Y4	Z4	X5	Y5	Z5	X6	Y6	Z6	X7	Y7	Z7	X8	Y8	Z8	X9	Y9	Z9	X10	Y10	Z10	X11	Y11	Z11	X12	Y12	Z12	X13	Y13	Z13	X14	Y14	Z14	X15	Y15	Z15	X16	Y16	Z16	X17	Y17	Z17	X18	Y18	Z18	

2744	13.86	0.37586386	0.049637634	0.14484085	-0.046666439	0.74200433	0.15929431	-0.17350388	0.72219391	0.20535927	-0.29126285	0.69090314	-0.022496941	-0.15306647	0.7152121	-0.2041617	-0.032128387	0.73962988	-0.15743806	-0.029256908	1.1226746	-0.00086294401	-0.11057123	1.181707	0.14174666	-0.12162748	1.1845428	-0.14978815	0.0027544611	1.0306252	-0.018256124	-0.024408564	1.075259	-0.12424898	0.30388217	0.49095905	0.087263657	0.28195798	0.50912125	0.22005257	0.21072073	0.64263824	0.13363542	0.25359076	0.10543637	0.1106509	0.1958445	0.091069229	0.19809695	0.24834935	0.31055496	0.22622754	0.15521381	0.048918488	0.15039775
2745	13.87	0.37583151	0.049674938	0.14480899	-0.046526588	0.74194305	0.15925597	-0.17340399	0.72236243	0.20531088	-0.29120837	0.69106775	-0.022511366	-0.1530125	0.71534271	-0.20418774	-0.03200983	0.73955676	-0.15747017	-0.027270761	1.122224	-0.00094641852	-0.10833874	1.1816318	0.14164331	-0.11945051	1.1844678	-0.14986058	0.0042909369	1.0300173	-0.01833535	-0.022658762	1.074806	-0.12433288	0.3037189	0.49099469	0.087208611	0.28183484	0.50915033	0.21999873	0.21065057	0.64266663	0.13360719	0.25355476	0.10545146	0.11065034	0.1957979	0.091083649	0.19812268	0.24826863	0.31058148	0.22620261	0.15519574	0.048906986	0.15041344
2746	13.88	0.37579895	0.049714676	0.14478445	-0.04636124	0.74186981	0.15921469	-0.17328265	0.72253528	0.20525763	-0.29113696	0.69125385	-0.022528694	-0.15293773	0.7154812	-0.20421701	-0.031919029	0.73945142	-0.15749997	-0.025161646	1.1217397	-0.0010294776	-0.10596544	1.1815375	0.14153954	-0.11712745	1.1843859	-0.14993173	0.0059267759	1.0293705	-0.018415936	-0.020794525	1.0743298	-0.12441985	0.30356296	0.49103033	0.087171021	0.28170795	0.50917847	0.21996158	0.21058598	0.64269263	0.13358849	0.25352141	0.10546751	0.11065144	0.19574236	0.091102768	0.19815254	0.24818236	0.31060849	0.2261841	0.15517955	0.048897896	0.15042432
2747	13.89	0.37576492	0.049757126	0.14476556	-0.046170563	0.74178308	0.15917172	-0.1731385	0.72271405	0.20520251	-0.29104691	0.69146149	-0.022548292	-0.15284239	0.71562927	-0.20425006	-0.031844578	0.7393158	-0.15752986	-0.022925735	1.1212202	-0.0011122113	-0.1034463	1.1814218	0.14143616	-0.11464872	1.1842965	-0.1500009	0.0076659021	1.0286824	-0.018497599	-0.018812029	1.0738256	-0.12450913	0.30341431	0.49106662	0.087150627	0.28157755	0.50920551	0.21994182	0.2105262	0.64271558	0.13357925	0.25348994	0.10548447	0.11065386	0.1956792	0.09112587	0.19818521	0.2480899	0.31063641	0.22617226	0.15516521	0.048890648	0.15043053
2748	13.9	0.37572891	0.049801769	0.14475092	-0.045955006	0.74168213	0.15912843	-0.17297049	0.72290051	0.20514857	-0.29093671	0.69169104	-0.022569582	-0.15272676	0.71578857	-0.20428668	-0.0317624	0.73915747	-0.15756357	-0.020558233	1.1206631	-0.0011949656	-0.10077554	1.181282	0.14133389	-0.11200611	1.1841984	-0.15006738	0.009512537	1.027951	-0.018580187	-0.016706518	1.0732872	-0.1245994	0.30327255	0.49110413	0.087146843	0.28144431	0.50923145	0.21993959	0.21047041	0.64273511	0.13357953	0.25345975	0.10550221	0.11065733	0.19561264	0.091150475	0.19821773	0.24799165	0.3106651	0.2261675	0.15515266	0.048884518	0.15043259
2749	13.91	0.3756911	0.049847294	0.14473967	-0.045714699	0.7415661	0.15908592	-0.17277795	0.72309552	0.20509801	-0.29080487	0.69194263	-0.022592197	-0.15259117	0.71596088	-0.20432661	-0.031649452	0.73898492	-0.15760417	-0.018053892	1.1200651	-0.0012781075	-0.097946815	1.1811156	0.14123326	-0.10919273	1.1840896	-0.15013068	0.011470829	1.0271735	-0.018663776	-0.0144728	1.0727091	-0.12468909	0.30313699	0.49114291	0.087158836	0.28130896	0.50925607	0.21995441	0.21041786	0.64275122	0.13358942	0.25343066	0.10552056	0.11066167	0.19554832	0.09117318	0.19824646	0.24788863	0.31069382	0.22617047	0.15514148	0.04887899	0.15043138
2750	13.92	0.37565286	0.049891888	0.14473198	-0.045448917	0.74143433	0.15904474	-0.1725607	0.72329987	0.20505179	-0.29064966	0.69221722	-0.02261606	-0.15243558	0.71614734	-0.2043692	-0.031492659	0.73880402	-0.15765297	-0.015407281	1.1194235	-0.0013617953	-0.094953552	1.1809209	0.14113448	-0.10620246	1.1839673	-0.15019026	0.013544932	1.0263467	-0.018748569	-0.012105912	1.0720854	-0.12477669	0.30300714	0.49118243	0.087185585	0.28117206	0.50927921	0.21998537	0.21036815	0.64276367	0.13360896	0.25340292	0.10553932	0.11066708	0.19549075	0.091190979	0.19826903	0.24778238	0.31072137	0.22618184	0.15513123	0.048873478	0.1504278
2751	13.93	0.37561603	0.049933895	0.14472881	-0.045156239	0.74128613	0.15900459	-0.17231879	0.72351385	0.20500986	-0.29046912	0.69251581	-0.022641203	-0.15225906	0.71634869	-0.20441214	-0.031287283	0.73861823	-0.1577093	-0.012612308	1.1187347	-0.0014457647	-0.091789413	1.1806952	0.14103746	-0.10302985	1.1838275	-0.15024559	0.015738878	1.0254672	-0.018834675	-0.009601531	1.0714122	-0.12486111	0.30288254	0.49122156	0.087226112	0.28103433	0.50930029	0.22003133	0.21032109	0.64277264	0.13363779	0.25337688	0.10555823	0.11067406	0.19544185	0.091202072	0.19828514	0.24767461	0.31074628	0.22620221	0.15512148	0.048867142	0.15042267
